<?xml version="1.0"?>
<svg xmlns="http://www.w3.org/2000/svg" xmlns:xlink="http://www.w3.org/1999/xlink" xmlns:inkscape="http://www.inkscape.org/namespaces/inkscape" version="1.1" width="99.89331" height="92.7984" viewBox="0 0 99.89331 92.7984" style="background-color:transparent;">
  <defs>
    <clipPath id="clip_0">
      <path transform="matrix(1,0,0,-1,-160.7803,488.7773)" d="M160.7803 395.9789H260.6736V488.7773H160.7803Z" clip-rule="evenodd"/>
    </clipPath>
    <clipPath id="clip_1">
      <path transform="matrix(1,0,0,-1,-160.7803,488.7773)" d="M0-.00001071236H455.04V587.52H0Z"/>
    </clipPath>
  </defs>
  <g clip-path="url(#clip_0)">
    <g clip-path="url(#clip_1)">
      <path transform="matrix(1,0,0,-1,-160.7803,488.7773)" d="M0-.00001071236H455.04V587.52H0Z" fill="none"/>
    </g>
    <path transform="matrix(.5454546,0,0,.5454546,-160.7803,-98.74271)" stroke-width="8.89963" stroke-linecap="round" stroke-linejoin="round" fill="none" stroke="#ffa316" d="M384.4617 258.5254C384.218 257.7808 383.6402 257.4455 382.7283 257.5193 382.0938 257.5706 381.6088 257.9162 381.2731 258.5561 380.9374 259.196 380.7374 260.0514 380.6732 261.1223 380.6092 262.1932 380.7303 263.3793 381.0367 264.6805 381.3432 265.9817 381.9976 267.1206 382.9999 268.0972 384.0021 269.0739 385.0953 269.7495 386.2794 270.1241 387.4635 270.4987 388.5452 270.6397 389.5247 270.5471 390.5041 270.4545 391.2584 269.9846 391.7876 269.1373 392.3169 268.29 392.696 267.3433 392.9249 266.2972 393.1538 265.251 393.257 264.2541 393.2346 263.3066 393.2122 262.359 392.9015 261.5036 392.3024 260.7402 391.7032 259.9768 390.9385 259.2871 390.0082 258.6711 389.0778 258.0551 388.0553 257.618 386.9409 257.36 385.8266 257.1019 384.7651 256.984 383.7565 257.0065 382.7479 257.0288 381.9183 257.3909 381.2675 258.0928 380.6167 258.7948 380.2153 259.7011 380.0632 260.8118 379.9111 261.9224 379.9553 263.0899 380.1957 264.3143 380.436 265.5388 380.9578 266.6674 381.7611 267.7 382.5643 268.7325 383.5104 269.5247 384.5992 270.0765 385.6879 270.6283 386.7493 270.9222 387.7833 270.9581 388.8174 270.9941 389.7514 270.7696 390.5853 270.2847 391.4192 269.7997 392.0812 269.1298 392.5712 268.275 393.0612 267.4203 393.3367 266.5691 393.3977 265.7213 393.4587 264.8736 393.3488 264.0533 393.0682 263.2604 392.7876 262.4675 392.208 261.704 391.3297 260.9697 390.4515 260.2354 389.5101 259.6734 388.5056 259.2838 387.5011 258.8939 386.5441 258.686 385.6345 258.6599 384.7251 258.6339 383.964 258.9839 383.3512 259.71 382.7384 260.436 382.3617 261.4278 382.2212 262.6851 382.0806 263.9425 382.045 265.1649 382.1144 266.3523 382.1838 267.5398 382.615 268.465 383.4081 269.1279 384.201 269.7909 385.1964 270.1255 386.3944 270.1317 387.5926 270.1379 388.6931 269.7407 389.6959 268.94 390.6989 268.1392 391.4516 267.2538 391.954 266.284 392.4563 265.3142 392.6605 264.4724 392.5665 263.7587 392.4725 263.0449 391.9323 262.4272 390.9462 261.9056 389.96 261.3841 388.9179 260.9565 387.8198 260.6229 386.7217 260.2893 385.824 260.1064 385.1268 260.0741 384.4296 260.0417 383.92 260.2859 383.5979 260.8065 383.2757 261.327 383.1218 262.0462 383.1361 262.964 383.1566 264.2891 384.1385 265.7694 386.0819 267.405"/>
    <path transform="matrix(.5454546,0,0,.5454546,-160.7803,-98.74271)" stroke-width="8.89963" stroke-linecap="round" stroke-linejoin="round" fill="none" stroke="#88c8ff" d="M385.0039 253.6063C385.4285 252.8182 385.5546 251.7767 385.3822 250.4816 385.2098 249.1865 385.098 248.1228 385.047 247.2905 384.9959 246.4583 385.001 245.3361 385.0623 243.9242 385.1234 242.5122 385.377 240.8557 385.8231 238.9544 386.2692 237.0532 386.9151 235.0874 387.7606 233.0569 388.6062 231.0264 389.6919 228.951 391.0178 226.8307 392.3437 224.7104 393.9099 222.6729 395.7166 220.7184 397.5233 218.7638 399.4651 217.0629 401.542 215.6157 403.6189 214.1684 405.8208 212.95 408.1478 211.9603 410.4747 210.9707 412.7658 210.1894 415.0211 209.6162 417.2766 209.0431 419.2711 208.676 421.0046 208.5148 422.7382 208.3537 424.2117 208.2905 425.4252 208.3252 426.6385 208.3599 427.5469 208.6782 428.1503 209.2803 428.7536 209.8825 429.1372 210.6868 429.3011 211.6934 429.4652 212.7001 429.5037 213.8162 429.4165 215.042 429.3293 216.2678 429.0908 217.5843 428.7012 218.9915 428.3115 220.3988 427.7684 221.8492 427.0718 223.3428 426.3751 224.8363 425.5959 226.3645 424.7341 227.9273 423.8725 229.49 422.9729 231.0463 422.0353 232.5963 421.0978 234.1462 419.6278 236.2497 417.6254 238.9067 415.6229 241.5637 414.1246 243.5145 413.1302 244.7592 412.1359 246.0037 411.1645 247.1603 410.2161 248.229 409.2677 249.2977 407.897 250.676 406.104 252.3639 404.311 254.0519 402.7697 255.3562 401.4799 256.2768 400.19 257.1974 399.1634 257.8204 398.4 258.1456 397.6367 258.4707 397.0035 258.6511 396.5006 258.6867 395.9977 258.7223 395.733 258.741 395.7065 258.7428 395.68 258.7447 395.7312 258.7163 395.86 258.6575 395.9889 258.5986 397.2775 258.0104 399.7257 256.8929 402.174 255.7753 404.3063 254.8199 406.1224 254.0268 407.9386 253.2338 410.1597 252.2979 412.7858 251.2191 415.4117 250.1404 418.1768 249.1106 421.0811 248.1299 423.9853 247.149 426.5597 246.4734 428.8042 246.1028 431.0487 245.7322 432.8611 245.5964 434.2413 245.6954 435.6215 245.7943 436.7096 246.208 437.5054 246.9366 438.3012 247.6651 438.9838 248.4868 439.5531 249.4016 440.1224 250.3163 440.7559 251.2668 441.4536 252.2529 442.1514 253.2391 442.9365 254.2094 443.809 255.1636 444.6815 256.1178 445.9133 257.3722 447.5044 258.9269 449.0955 260.4816 450.0859 261.6268 450.4753 262.3623 450.8647 263.0978 451.1307 264.1092 451.2733 265.3964 451.4159 266.6837 451.486 267.5935 451.4835 268.1261 451.4809 268.6586 451.186 269.4124 450.5989 270.3875 450.0117 271.3625 449.0913 272.3355 447.8378 273.3063 446.5842 274.2772 445.5273 275.0207 444.6671 275.5368 443.8068 276.053 442.7854 276.5757 441.603 277.1051 440.4207 277.6344 439.0686 278.1613 437.5466 278.6857 436.0248 279.21 434.3973 279.7084 432.6641 280.1808 430.9308 280.6532 429.228 281.0485 427.5557 281.3666 425.8833 281.6847 423.5605 281.9529 420.5872 282.1711 417.6139 282.3894 415.3234 282.4734 413.7155 282.4232 412.1075 282.373 410.5173 282.2576 408.9446 282.0771 407.3717 281.8965 405.8123 281.6783 404.2664 281.4225 402.7204 281.1668 401.2877 280.8747 399.9683 280.5461 398.6489 280.2174 397.5321 279.8482 396.6178 279.4385 395.7037 279.0288 394.995 278.6165 394.4918 278.2015 393.9886 277.7867 393.5455 277.2721 393.1622 276.6576 392.7789 276.0431 392.2889 275.4732 391.692 274.9478 391.0952 274.4224 390.7629 274.1299 390.6953 274.0703L390.6424 274.0215 390.6871 274.0552C390.7494 274.1048 391.0551 274.3482 391.6041 274.7853 392.1531 275.2224 392.9957 276.1842 394.1318 277.6709 395.2681 279.1576 396.3576 280.6928 397.4005 282.2765 398.4435 283.8602 399.6204 285.7651 400.9312 287.9911 402.2419 290.2172 403.4677 292.4654 404.6084 294.7358 405.7492 297.0062 406.7497 299.1906 407.6099 301.2891 408.4701 303.3877 409.1166 305.1609 409.5496 306.6088 409.9827 308.0566 410.3011 309.3131 410.505 310.3784 410.7089 311.4437 410.8405 312.3941 410.9 313.2297 410.9596 314.0652 410.9353 314.7945 410.8273 315.4173 410.7193 316.0401 410.4948 316.658 410.1537 317.2711 409.8126 317.8843 409.1204 318.7207 408.0771 319.7803 407.0339 320.84 406.1873 321.6242 405.5374 322.1329 404.8873 322.6415 404.216 323.0903 403.5234 323.4794 402.831 323.8686 402.0898 324.1744 401.3 324.3967 400.5103 324.619 399.6729 324.7743 398.7877 324.8626 397.9025 324.951 396.9752 324.928 396.0057 324.7938 395.0364 324.6595 394.0546 324.3127 393.0604 323.7534 392.0662 323.1941 391.0743 322.4344 390.0848 321.4743 389.0955 320.5142 388.1379 319.3344 387.2122 317.9348 386.2864 316.5351 385.3983 315.0164 384.548 313.3788 383.6975 311.7411 382.8778 310.0025 382.0889 308.163 381.2999 306.3234 380.5826 304.47 379.9371 302.603 379.2915 300.7359 378.843 299.002 378.5914 297.4011 378.3398 295.8003 378.1746 294.1749 378.0958 292.525 378.0172 290.8751 378.2015 289.2281 378.6488 287.584 379.0961 285.94 379.6042 284.4467 380.1731 283.1042 380.742 281.7616 381.2981 280.576 381.8414 279.5475 382.385 278.5189 383.0424 277.408 383.8136 276.2148 384.585 275.0216 385.193 274.0668 385.6376 273.3502 386.0822 272.6338 386.3271 272.2392 386.3723 272.1663L386.4017 272.1239 386.3522 272.2292C386.2936 272.344 385.976 272.9661 385.3994 274.0956 384.8229 275.225 384.0168 276.5675 382.9812 278.1232 381.9455 279.679 380.9728 280.9834 380.0632 282.0366 379.1536 283.0898 378.0102 284.2101 376.6329 285.3974 375.2559 286.5846 373.6427 287.7596 371.7933 288.9222 369.9441 290.0848 367.8009 291.1921 365.364 292.2441 362.9272 293.2962 360.2151 294.1998 357.2279 294.955 354.2406 295.7101 351.2998 296.2522 348.4055 296.5814 345.5114 296.9104 342.8254 297.0664 340.3475 297.0493 337.8697 297.0321 335.705 296.7268 333.8536 296.1334 332.0022 295.54 330.5026 294.8739 329.3549 294.1351 328.2071 293.3963 327.2658 292.6867 326.531 292.0065 325.7961 291.3261 325.3034 290.633 325.0527 289.9272 324.8022 289.2213 324.7432 288.4786 324.876 287.6989 325.0087 286.9191 325.3834 286.097 326.0001 285.2327 326.6167 284.3684 327.3668 283.4635 328.2502 282.518 329.1339 281.5726 330.142 280.5752 331.2745 279.5259 332.4072 278.4767 333.7022 277.357 335.1597 276.167 336.6171 274.977 338.2715 273.7436 340.1228 272.4667 341.974 271.19 343.9878 269.9583 346.1643 268.7718 348.3407 267.5853 350.6267 266.5658 353.0225 265.7133 355.4182 264.8608 357.6659 264.2163 359.7654 263.7798 361.8648 263.3434 364.358 263.0451 367.245 262.885 370.132 262.7248 372.0916 262.6603 373.1238 262.6914 374.1559 262.7225 375.3952 262.6888 376.8417 262.5903 378.2881 262.4918 379.4447 262.1533 380.3115 261.5746 381.1782 260.996 381.396 260.5833 380.9647 260.3365 380.5335 260.0897 378.966 259.7381 376.2623 259.2818 373.5586 258.8254 371.3237 258.4332 369.5575 258.105 367.7912 257.7769 365.7681 257.3292 363.4883 256.762 361.2084 256.1947 358.8805 255.4949 356.5044 254.6624 354.1284 253.8299 351.9633 252.8127 350.0092 251.6107 348.0551 250.4087 346.4686 249.0897 345.2499 247.6537 344.0311 246.2175 343.0043 244.7994 342.1694 243.3994 341.3344 241.9993 340.6958 240.7477 340.2537 239.6445 339.8114 238.5413 339.533 237.5747 339.4183 236.7447 339.3038 235.9147 339.3618 235.1013 339.5925 234.3046 339.8233 233.508 340.3129 232.7267 341.0612 231.9608 341.8095 231.1948 342.6942 230.4663 343.7151 229.7754 344.7361 229.0844 345.9162 228.4465 347.2554 227.8616 348.5946 227.2768 350.1228 226.8136 351.84 226.4722 353.5569 226.1307 355.3701 225.9114 357.2795 225.8144 359.1891 225.7174 361.083 225.9996 362.9612 226.6608 364.8394 227.3222 366.5251 228.3096 368.0183 229.6232 369.5116 230.9368 370.809 232.4448 371.9105 234.1472 373.0122 235.8495 374.0426 237.6465 375.002 239.5381 375.9613 241.4296 377.1679 243.9847 378.6217 247.2033 380.823 252.0767 383.0575 256.4804 385.3252 260.4143"/>
    <path transform="matrix(.5454546,0,0,.5454546,-160.7803,-98.74271)" stroke-width="8.89963" stroke-linecap="round" stroke-linejoin="round" fill="none" stroke="#ffa316" d="M388.8932 260.2471C388.0499 259.0132 387.4493 258.2621 387.0912 257.9937 386.8423 257.8071 386.519 257.6977 386.1213 257.6654 385.7234 257.6331 385.2441 257.6966 384.6836 257.856 384.1231 258.0153 383.5697 258.3686 383.0232 258.9158 382.4769 259.463 382.0391 260.1385 381.71 260.9423 381.3809 261.7462 381.1778 262.6287 381.1007 263.5898 381.0236 264.5508 381.1432 265.4654 381.4597 266.3336 381.7764 267.2018 382.2708 267.8824 382.9431 268.3756 383.6154 268.8687 384.3812 269.169 385.2405 269.2767 386.0998 269.3845 386.9302 269.374 387.7317 269.2454 388.5332 269.1168 389.2333 268.8455 389.832 268.4315 390.4307 268.0175 390.9106 267.5445 391.2716 267.0126 391.6326 266.4807 391.8569 265.9343 391.9443 265.3734 392.0319 264.8125 392.0023 264.2038 391.8555 263.5471 391.7086 262.8903 391.3168 262.2016 390.6801 261.4808 390.0433 260.76 389.3035 260.1366 388.4606 259.6106 387.6176 259.0847 386.7704 258.6814 385.9188 258.4008 385.0674 258.12 384.3012 257.9816 383.6201 257.9855 382.9392 257.9894 382.3438 258.1947 381.8337 258.6013 381.324 259.0079 380.8643 259.5564 380.4548 260.2466 380.0453 260.937 379.6997 261.7072 379.4178 262.5571 379.1359 263.4072 378.9744 264.2684 378.9332 265.1406 378.892 266.0127 378.9832 266.8305 379.2068 267.594 379.4303 268.3575 379.8395 268.9594 380.4343 269.3998 381.0291 269.8402 381.7181 270.1074 382.5011 270.2014 383.2841 270.2953 384.123 270.2867 385.0178 270.1757 385.9127 270.0648 386.792 269.7689 387.6558 269.2878 388.5196 268.8067 389.2675 268.2566 389.8995 267.6375 390.5315 267.0185 391.0247 266.3596 391.3792 265.6609 391.7335 264.9622 391.938 264.2224 391.9927 263.4415 392.0473 262.6606 391.9296 261.8963 391.6398 261.1486 391.3499 260.401 390.9223 259.7273 390.3569 259.1274 389.7914 258.5275 389.1459 258.0473 388.4204 257.6866 387.6949 257.3259 386.972 257.0761 386.2517 256.9371 385.5315 256.7981 384.8155 256.7449 384.1036 256.7776 383.3919 256.8103 382.7623 257.0278 382.215 257.4299 381.6677 257.8321 381.2427 258.3582 380.9401 259.0084 380.6373 259.6587 380.4402 260.396 380.3486 261.2202 380.2571 262.0443 380.2515 262.9175 380.332 263.8397 380.4126 264.7618 380.6972 265.6448 381.1858 266.4885 381.6744 267.3322 382.2929 268.0146 383.0414 268.5356 383.79 269.0568 384.637 269.3706 385.5824 269.4769 386.5278 269.5833 387.481 269.5114 388.4419 269.2612 389.4028 269.0112 390.2607 268.6127 391.0156 268.0658 391.7705 267.5188 392.3612 266.9225 392.7877 266.2767 393.2143 265.6309 393.4773 264.9529 393.5768 264.2426 393.6761 263.5324 393.6174 262.7133 393.4006 261.7853 393.1838 260.8574 392.7096 259.9332 391.9778 259.0125 391.2461 258.0918 390.3997 257.3951 389.4385 256.9222 388.4772 256.4494 387.5077 256.1779 386.53 256.1075 385.5522 256.0372 384.6677 256.2543 383.8765 256.7589 383.0853 257.2634 382.3965 257.9661 381.8102 258.8669 381.2238 259.7677 380.743 260.7613 380.3678 261.8476 379.9927 262.9339 379.7809 264.0627 379.7323 265.2338 379.6839 266.4048 379.8663 267.4767 380.2795 268.4496 380.6927 269.4226 381.2762 270.1971 382.0302 270.7733 382.7841 271.3495 383.6736 271.6976 384.6986 271.8174 385.7236 271.9373 386.7767 271.8699 387.8579 271.6151 388.9392 271.3603 389.9181 270.9287 390.7947 270.3203 391.671 269.712 392.3791 269.073 392.9189 268.4034 393.4587 267.7339 393.7961 267.0697 393.9309 266.4109 394.0658 265.752 394.0593 265.0344 393.9114 264.258 393.7633 263.4817 393.3705 262.721 392.7329 261.9761 392.0954 261.2311 391.3049 260.6094 390.3613 260.1109 389.4179 259.6124 388.3703 259.2533 387.2185 259.0338 386.0666 258.8143 384.9306 258.7817 383.8105 258.9361 382.6905 259.0905 381.7546 259.5139 381.0027 260.2064 380.2507 260.8988 379.6866 261.7222 379.3102 262.6767 378.9338 263.6312 378.7307 264.6455 378.7009 265.7197 378.6712 266.7939 378.8631 267.7974 379.2766 268.7302 379.69 269.663 380.2963 270.4203 381.0953 271.0023 381.8945 271.5843 382.8161 271.952 383.8601 272.1053 384.9042 272.2586 385.9746 272.2367 387.0713 272.0396 388.1681 271.8425 389.1777 271.4415 390.1002 270.8365 391.0227 270.2316 391.782 269.5426 392.3783 268.7697 392.9745 267.9966 393.3446 267.2081 393.4886 266.4041 393.6325 265.6 393.5251 264.7333 393.1665 263.8038 392.8078 262.8744 392.1683 261.9876 391.2479 261.1434 390.3275 260.2992 389.3391 259.6864 388.2827 259.3049 387.2262 258.9234 386.1695 258.7666 385.1127 258.8347 384.0557 258.9027 383.1145 259.2869 382.2891 259.9872 381.4635 260.6875 380.7816 261.5409 380.2432 262.5473 379.7048 263.5537 379.3651 264.5609 379.2239 265.569 379.0206 267.0202 379.8935 268.4933 381.8425 269.9881"/>
    <path transform="matrix(.5454546,0,0,.5454546,-160.7803,-98.74271)" stroke-width="8.89963" stroke-linecap="round" stroke-linejoin="round" fill="none" stroke="#ffa316" d="M384.7999 262.2375C384.9135 261.8965 384.7949 261.7648 384.444 261.8423 384.188 261.8988 384.0402 262.1185 384.0005 262.5013 383.9606 262.8841 383.9695 263.3516 384.0271 263.9037 384.0848 264.4559 384.2683 264.9717 384.5775 265.4514 384.8867 265.9309 385.2591 266.2802 385.6947 266.4993 386.1303 266.7182 386.5818 266.8043 387.0492 266.7575 387.5165 266.7108 387.908 266.4575 388.2238 265.9977 388.5396 265.538 388.7173 265.0432 388.7568 264.5133 388.7965 263.9834 388.711 263.4774 388.5005 262.9953 388.2901 262.5131 387.9772 262.1407 387.5618 261.8779 387.1466 261.6152 386.7517 261.5195 386.3772 261.5907 386.0028 261.6619 385.7236 261.9192 385.5394 262.3625 385.2731 263.0037 385.4087 263.8934 385.9464 265.0314"/>
    <text fill-opacity="0" xml:space="preserve" transform="matrix(1.163286 0 0 .5454546 13.888992 12.433716)" font-size="105.2672" font-family=".SFUI">
      <tspan y="100.23" x="0">B</tspan>
    </text>
  </g>
</svg>
